<svg xmlns="http://www.w3.org/2000/svg" version="1.1" xmlns:xlink="http://www.w3.org/1999/xlink" width="1000" height="1000"><g clip-path="url(#SvgjsClipPath1003)"><rect width="1000" height="1000" fill="#ffffff"></rect><g transform="matrix(3.5,0,0,3.5,150,150)"><svg xmlns="http://www.w3.org/2000/svg" version="1.1" xmlns:xlink="http://www.w3.org/1999/xlink" width="200" height="200"><svg xmlns="http://www.w3.org/2000/svg" version="1.1" xmlns:xlink="http://www.w3.org/1999/xlink" viewBox="0 0 200 200"><rect width="200" height="200" fill="url('#gradient')"></rect><defs><linearGradient id="gradient" gradientTransform="rotate(45 0.5 0.5)"><stop offset="0%" stop-color="#ffffff"></stop><stop offset="100%" stop-color="#ffffff"></stop></linearGradient><clipPath id="SvgjsClipPath1003"><rect width="1000" height="1000" x="0" y="0" rx="350" ry="350"></rect></clipPath></defs><g><g fill="#5e0000" transform="matrix(2.260485651214128,0,0,2.260485651214128,7.576373940008892,116.07631096092544)" stroke="#5e0000" stroke-width="0.2"><path d="M9.89-8.57L9.89-6.03L4.50-6.03L4.50-2.64L10.87-2.64L10.87 0L1.07 0L1.07-14.22L10.89-14.22L10.89-11.57L4.50-11.57L4.50-8.57L9.89-8.57ZM14.96-14.22L17.78-3.87L20.62-14.22L24.44-14.22L19.66 0L15.91 0L11.16-14.22L14.96-14.22ZM37.39-7.47L37.39-6.82Q37.39-4.74 36.62-3.13Q35.85-1.53 34.43-0.67Q33.01 0.20 31.19 0.20Q29.38 0.20 27.97-0.64Q26.56-1.47 25.78-3.03Q24.99-4.58 24.95-6.59L24.95-6.59L24.95-7.39Q24.95-9.48 25.72-11.08Q26.48-12.68 27.92-13.54Q29.35-14.41 31.17-14.41L31.17-14.41Q32.98-14.41 34.39-13.55Q35.81-12.70 36.60-11.11Q37.38-9.52 37.39-7.47L37.39-7.47ZM33.91-6.76L33.91-7.41Q33.91-9.53 33.20-10.63Q32.49-11.73 31.17-11.73L31.17-11.73Q28.59-11.73 28.45-7.86L28.45-7.86L28.44-6.82Q28.44-4.73 29.13-3.60Q29.82-2.48 31.19-2.48L31.19-2.48Q32.49-2.48 33.19-3.58Q33.90-4.69 33.91-6.76L33.91-6.76ZM50.80-7.60L50.80-1.76Q50.01-0.88 48.49-0.34Q46.96 0.20 45.15 0.20L45.15 0.20Q42.35 0.20 40.68-1.51Q39.01-3.22 38.90-6.27L38.90-6.27L38.89-7.50Q38.89-9.60 39.63-11.17Q40.37-12.73 41.75-13.58Q43.13-14.42 44.95-14.42L44.95-14.42Q47.61-14.42 49.08-13.21Q50.55-11.99 50.79-9.58L50.79-9.58L47.49-9.58Q47.31-10.77 46.73-11.28Q46.14-11.79 45.07-11.79L45.07-11.79Q43.78-11.79 43.08-10.69Q42.37-9.60 42.36-7.57L42.36-7.57L42.36-6.71Q42.36-4.58 43.09-3.51Q43.82-2.44 45.38-2.44L45.38-2.44Q46.72-2.44 47.37-3.04L47.37-3.04L47.37-5.24L44.99-5.24L44.99-7.60L50.80-7.60ZM55.37-14.22L58.00-8.05L60.62-14.22L64.32-14.22L59.74-5.11L59.74 0L56.26 0L56.26-5.11L51.69-14.22L55.37-14.22ZM65.35-14.22L69.85-14.22L73.03-4.33L76.19-14.22L80.70-14.22L80.70 0L77.27 0L77.27-3.32L77.60-10.12L74.16 0L71.89 0L68.45-10.13L68.78-3.32L68.78 0L65.35 0L65.35-14.22Z"></path></g></g></svg></svg></g></g></svg>